<svg xmlns="http://www.w3.org/2000/svg" width="32" height="16"><path d="M0 8l16 8 16-8-16-8"/><path stroke="#C4BB9D" stroke-linecap="round" d="M8 9l0 0M12 4l0 0M18 12l0 0M19 4l0 0" stroke-width="3"/><g fill-opacity=".7" stroke-linecap="round" stroke-linejoin="round" stroke-width="3" stroke-opacity=".9" fill="none"><path d="M16 5q2 3 7 6M5 6l2 3s3 4 11 4" fill-opacity=".59" stroke="#3F2F43"/><path d="M8 3l2 3c6 4 6-1 6 5q0 1-1 1" stroke="#432E42"/><g stroke-opacity=".7"><path d="M16 8l3-1M27 8l-1 1" stroke="#434133"/><path d="M14 3l1 0 0 0M5 8l1 1" stroke="#384334"/></g><path d="M17 3s14 3 8 4M10 8q0 2 3 1" stroke="#372B43"/></g></svg>