<svg xmlns="http://www.w3.org/2000/svg" width="32" height="16"><path d="M0 8l16 8 16-8-16-8"/><path stroke="#C4BB9D" stroke-linecap="round" d="M9 10l0 0M12 5l0 0M19 11l0 0M22 6l0 0" stroke-width="3"/><g fill-opacity=".7" stroke-linecap="round" stroke-linejoin="round" stroke-width="4.5" stroke-opacity=".8" fill="none"><path d="M5 4s-2 1-1 2l3 2s3 2 7 1q2-1 5-1" fill-opacity=".59" stroke="#3F2F43"/><path d="M20 7l-5-2s-2-1-2-2q-1-3 4-2" stroke="#432E42"/><g stroke-opacity=".6"><path d="M9 3l0 1M28 6l-2-1" stroke="#434133"/><path d="M19 4l1 0 0 0M13 12l3 1" stroke="#43332D"/></g><path d="M10 8s3 7 15 1" stroke="#372B43"/></g></svg>