<svg xmlns="http://www.w3.org/2000/svg" width="32" height="16"><path d="M0 8l16 8 16-8-16-8"/><path stroke="#C4BB9D" stroke-linecap="round" d="M8 7l0 0M12 4l0 0M18 12l0 0M20 6l0 0" stroke-width="3"/><g fill-opacity=".7" stroke-linecap="round" stroke-linejoin="round" stroke-width="4.5" stroke-opacity=".8" fill="none"><path d="M10 2l3 2s11-4 14 2" fill-opacity=".59" stroke="#3F2F43"/><path d="M4 4q1-1 5 0l2 3c6 4 6-1 6 5q0 1-1 1" stroke="#432E42"/><g stroke-opacity=".6"><path d="M27 8l-2 1" stroke="#434133"/><path d="M17 7l1 0M5 8l4 2" stroke="#43332D"/></g><path d="M16 3s14 3 5 7M11 10q0 2 3 1" stroke="#372B43"/></g></svg>